<svg width="1440" height="175" viewBox="0 0 1440 175" fill="none" xmlns="http://www.w3.org/2000/svg">
<path d="M100.007 76.2786L100.007 174" stroke="#DDDDDD" stroke-miterlimit="10"/>
<path d="M100.299 75.8442L-42.9999 34.1279" stroke="#DDDDDD" stroke-miterlimit="10"/>
<path d="M100.299 75.844L179.464 3.4541" stroke="#DDDDDD" stroke-miterlimit="10"/>
<path d="M386.007 73.825L386.007 171.546" stroke="#DDDDDD" stroke-miterlimit="10"/>
<path d="M386.299 73.3906L243 31.6743" stroke="#DDDDDD" stroke-miterlimit="10"/>
<path d="M386.299 73.3905L465.464 1.00049" stroke="#DDDDDD" stroke-miterlimit="10"/>
<path d="M670.007 73.825L670.007 171.546" stroke="#DDDDDD" stroke-miterlimit="10"/>
<path d="M670.299 73.3906L527 31.6743" stroke="#DDDDDD" stroke-miterlimit="10"/>
<path d="M670.299 73.3905L749.464 1.00049" stroke="#DDDDDD" stroke-miterlimit="10"/>
<path d="M954.006 76.2786L954.006 174" stroke="#DDDDDD" stroke-miterlimit="10"/>
<path d="M954.297 75.8442L810.999 34.1279" stroke="#DDDDDD" stroke-miterlimit="10"/>
<path d="M954.297 75.844L1033.46 3.4541" stroke="#DDDDDD" stroke-miterlimit="10"/>
<path d="M1240.01 76.2786L1240.01 174" stroke="#DDDDDD" stroke-miterlimit="10"/>
<path d="M1240.3 75.8442L1097 34.1279" stroke="#DDDDDD" stroke-miterlimit="10"/>
<path d="M1240.3 75.844L1319.46 3.4541" stroke="#DDDDDD" stroke-miterlimit="10"/>
<path d="M242.007 101.176L242.007 3.4542" stroke="#DDDDDD" stroke-miterlimit="10"/>
<path d="M242.299 101.61L99.0001 143.326" stroke="#DDDDDD" stroke-miterlimit="10"/>
<path d="M242.299 101.61L321.464 174" stroke="#DDDDDD" stroke-miterlimit="10"/>
<path d="M528.007 98.7214L528.007 1.00005" stroke="#DDDDDD" stroke-miterlimit="10"/>
<path d="M528.299 99.1558L385 140.872" stroke="#DDDDDD" stroke-miterlimit="10"/>
<path d="M528.299 99.1559L607.464 171.546" stroke="#DDDDDD" stroke-miterlimit="10"/>
<path d="M812.007 98.7214L812.007 1.00005" stroke="#DDDDDD" stroke-miterlimit="10"/>
<path d="M812.298 99.1558L669 140.872" stroke="#DDDDDD" stroke-miterlimit="10"/>
<path d="M812.298 99.1559L891.463 171.546" stroke="#DDDDDD" stroke-miterlimit="10"/>
<path d="M1096.01 101.176L1096.01 3.4542" stroke="#DDDDDD" stroke-miterlimit="10"/>
<path d="M1096.3 101.61L952.999 143.326" stroke="#DDDDDD" stroke-miterlimit="10"/>
<path d="M1096.3 101.61L1175.46 174" stroke="#DDDDDD" stroke-miterlimit="10"/>
<path d="M1382.01 101.176L1382.01 3.4542" stroke="#DDDDDD" stroke-miterlimit="10"/>
<path d="M1382.3 101.61L1239 143.326" stroke="#DDDDDD" stroke-miterlimit="10"/>
<path d="M1382.3 101.61L1461.46 174" stroke="#DDDDDD" stroke-miterlimit="10"/>
</svg>
