<?xml version="1.0" encoding="UTF-8"?><svg xmlns="http://www.w3.org/2000/svg" viewBox="0 0 27.13 27.38"><defs><style>.d{fill:#585862;}</style></defs><g id="a"/><g id="b"><g id="c"><g><path class="d" d="M19.22,2.28c1.5,0,2.93,.61,3.99,1.68,1.06,1.07,1.66,2.52,1.66,4.03v11.41c0,1.51-.6,2.96-1.66,4.03s-2.49,1.67-3.99,1.68H7.91c-1.5,0-2.93-.61-3.99-1.68s-1.66-2.52-1.66-4.03V7.99c0-1.51,.6-2.96,1.66-4.03,1.06-1.07,2.49-1.67,3.99-1.68h11.3Zm0-2.28H7.91C3.56,0,0,3.59,0,7.99v11.41c0,4.39,3.56,7.99,7.91,7.99h11.3c4.35,0,7.91-3.59,7.91-7.99V7.99c0-4.39-3.56-7.99-7.91-7.99Z"/><path class="d" d="M20.91,7.99c-.34,0-.66-.1-.94-.29-.28-.19-.5-.46-.62-.77-.13-.31-.16-.66-.1-.99,.07-.33,.23-.64,.46-.88,.24-.24,.54-.4,.87-.47,.33-.07,.67-.03,.98,.1,.31,.13,.57,.35,.76,.63,.19,.28,.29,.61,.29,.95,0,.22-.04,.45-.13,.66-.08,.21-.21,.4-.37,.56-.16,.16-.34,.28-.55,.37s-.43,.13-.65,.13Z"/><path class="d" d="M13.56,9.13c.89,0,1.77,.27,2.51,.77,.74,.5,1.32,1.21,1.67,2.05,.34,.83,.43,1.75,.26,2.64-.17,.89-.61,1.7-1.24,2.34-.63,.64-1.44,1.07-2.32,1.25-.88,.18-1.79,.09-2.61-.26-.83-.35-1.53-.93-2.03-1.68-.5-.75-.76-1.63-.76-2.54,0-1.21,.48-2.37,1.33-3.23,.85-.86,2-1.34,3.2-1.34Zm0-2.28c-1.34,0-2.65,.4-3.77,1.15-1.12,.75-1.98,1.82-2.5,3.07-.51,1.25-.65,2.63-.39,3.95s.91,2.55,1.86,3.5c.95,.96,2.16,1.61,3.47,1.87,1.32,.26,2.68,.13,3.92-.39,1.24-.52,2.3-1.4,3.04-2.52,.75-1.13,1.14-2.45,1.14-3.8,0-1.82-.71-3.56-1.99-4.84-1.27-1.28-3-2-4.8-2Z"/></g></g></g></svg>