<svg width="31" height="140" viewBox="0 0 31 140" fill="none" xmlns="http://www.w3.org/2000/svg">
<path fill-rule="evenodd" clip-rule="evenodd" d="M29.0642 14.1897C29.0642 6.6298 22.9906 0.5 15.5 0.5C8.00941 0.5 1.93579 6.6298 1.93579 14.1897C1.93579 21.0223 6.8952 26.6858 13.3806 27.7138V18.1481H9.93565V14.1897H13.3806V11.1737C13.3806 7.74331 15.4061 5.84692 18.5041 5.84692C19.9883 5.84692 21.5409 6.11461 21.5409 6.11461V9.48386H19.8296C18.1456 9.48386 17.6188 10.5387 17.6188 11.6229V14.1897H21.3804L20.7797 18.1481H17.6194V27.715C24.1048 26.6876 29.0642 21.0241 29.0642 14.1897Z" fill="#585862"/>
<path d="M21.1516 42.6471C22.6492 42.6517 24.0843 43.2541 25.1433 44.3229C26.2023 45.3917 26.7992 46.8401 26.8037 48.3516V59.7593C26.7992 61.2708 26.2023 62.7191 25.1433 63.7879C24.0843 64.8567 22.6492 65.4592 21.1516 65.4637H9.84845C8.35078 65.4592 6.91573 64.8567 5.85671 63.7879C4.79769 62.7191 4.20076 61.2708 4.19629 59.7593V48.3516C4.20076 46.8401 4.79769 45.3917 5.85671 44.3229C6.91573 43.2541 8.35078 42.6517 9.84845 42.6471H21.1516ZM21.1516 40.3657H9.84845C5.49639 40.3657 1.93579 43.9593 1.93579 48.3516V59.7593C1.93579 64.1516 5.49639 67.7451 9.84845 67.7451H21.1516C25.5036 67.7451 29.0642 64.1516 29.0642 59.7593V48.3516C29.0642 43.9593 25.5036 40.3657 21.1516 40.3657Z" fill="#585862"/>
<path d="M22.8471 48.3516C22.5117 48.3516 22.1839 48.2512 21.9051 48.0632C21.6263 47.8752 21.4089 47.6079 21.2806 47.2952C21.1523 46.9825 21.1187 46.6385 21.1841 46.3065C21.2496 45.9746 21.411 45.6697 21.6482 45.4304C21.8853 45.191 22.1874 45.0281 22.5163 44.962C22.8452 44.896 23.1861 44.9299 23.4959 45.0594C23.8057 45.1889 24.0706 45.4083 24.2569 45.6897C24.4432 45.9711 24.5426 46.3019 24.5426 46.6404C24.5431 46.8652 24.4996 47.088 24.4145 47.2958C24.3295 47.5036 24.2046 47.6925 24.0471 47.8515C23.8895 48.0105 23.7024 48.1365 23.4965 48.2223C23.2906 48.3081 23.0699 48.3521 22.8471 48.3516Z" fill="#585862"/>
<path d="M15.5 49.492C16.3943 49.492 17.2685 49.7596 18.0121 50.2611C18.7556 50.7625 19.3352 51.4752 19.6774 52.3091C20.0196 53.1429 20.1092 54.0605 19.9347 54.9457C19.7603 55.8309 19.3296 56.644 18.6973 57.2822C18.0649 57.9205 17.2592 58.3551 16.3821 58.5312C15.505 58.7072 14.5959 58.6169 13.7697 58.2715C12.9434 57.9261 12.2373 57.3412 11.7404 56.5907C11.2436 55.8403 10.9784 54.958 10.9784 54.0554C10.9797 52.8455 11.4565 51.6855 12.3042 50.83C13.1518 49.9745 14.3012 49.4933 15.5 49.492ZM15.5 47.2106C14.1586 47.2106 12.8474 47.612 11.7321 48.3641C10.6168 49.1163 9.74747 50.1853 9.23415 51.436C8.72083 52.6867 8.58652 54.063 8.84821 55.3908C9.1099 56.7186 9.75583 57.9382 10.7043 58.8955C11.6528 59.8527 12.8613 60.5046 14.1769 60.7687C15.4925 61.0329 16.8561 60.8973 18.0954 60.3792C19.3347 59.8612 20.3939 58.9838 21.1391 57.8582C21.8843 56.7326 22.2821 55.4092 22.2821 54.0554C22.2821 52.2401 21.5676 50.499 20.2957 49.2154C19.0238 47.9317 17.2987 47.2106 15.5 47.2106Z" fill="#585862"/>
<path d="M30.8008 85.5778C30.8008 82.8276 28.7965 80.6153 26.3198 80.6153C22.9651 80.457 19.5437 80.3959 16.0473 80.3959H14.9573C11.4694 80.3959 8.04201 80.457 4.68729 80.6159C2.21666 80.6159 0.212309 82.8404 0.212309 85.5906C0.0609228 87.7657 -0.00326503 89.9414 0.000368237 92.117C-0.00568721 94.2927 0.0629413 96.4704 0.206254 98.6502C0.206254 101.4 2.21061 103.631 4.68123 103.631C8.20551 103.796 11.8206 103.869 15.4963 103.863C19.178 103.876 22.783 103.798 26.3113 103.631C28.788 103.631 30.7923 101.4 30.7923 98.6502C30.9377 96.4684 31.0043 94.2927 30.9982 92.1109C31.0119 89.9352 30.9461 87.7575 30.8008 85.5778ZM12.5352 98.1124V86.1034L21.3156 92.1048L12.5352 98.1124Z" fill="#585862"/>
<path d="M30.0331 119.296C28.9428 119.774 27.7892 120.089 26.6087 120.231C27.8493 119.498 28.7822 118.333 29.2326 116.955C28.0597 117.647 26.7786 118.133 25.4443 118.392C24.8824 117.797 24.2066 117.324 23.458 117.002C22.7095 116.679 21.9037 116.514 21.0898 116.515C17.7944 116.515 15.1276 119.168 15.1276 122.437C15.1253 122.892 15.1769 123.346 15.2814 123.788C12.9184 123.676 10.6045 123.068 8.48778 122.002C6.37107 120.936 4.49814 119.435 2.98883 117.597C2.45933 118.498 2.1793 119.526 2.17801 120.573C2.17801 122.627 3.23953 124.442 4.84241 125.505C3.89275 125.483 2.96255 125.229 2.13077 124.766V124.839C2.13077 127.712 4.18963 130.101 6.91458 130.645C6.40216 130.783 5.87411 130.853 5.3438 130.853C4.9675 130.853 4.59205 130.817 4.22293 130.743C4.98047 133.096 7.18526 134.807 9.79698 134.856C7.67477 136.506 5.06925 137.399 2.38995 137.392C1.91436 137.391 1.43922 137.363 0.966917 137.307C3.69258 139.063 6.86096 139.992 10.0949 139.983C21.0771 139.983 27.0768 130.957 27.0768 123.128C27.0768 122.871 27.0702 122.615 27.058 122.364C28.2226 121.528 29.23 120.489 30.0331 119.296Z" fill="#585862"/>
</svg>
