<?xml version="1.0" encoding="UTF-8"?><svg xmlns="http://www.w3.org/2000/svg" viewBox="0 0 29.07 23.47"><defs><style>.d{fill:#585862;}</style></defs><g id="a"/><g id="b"><g id="c"><path class="d" d="M29.07,2.78c-1.09,.48-2.24,.79-3.42,.94,1.24-.73,2.17-1.9,2.62-3.28-1.17,.69-2.45,1.18-3.79,1.44-.56-.6-1.24-1.07-1.99-1.39C21.74,.16,20.94,0,20.12,0,16.83,0,14.16,2.65,14.16,5.92c0,.46,.05,.91,.15,1.35-2.36-.11-4.68-.72-6.79-1.79C5.4,4.42,3.53,2.92,2.02,1.08c-.53,.9-.81,1.93-.81,2.98,0,2.05,1.06,3.87,2.66,4.93-.95-.02-1.88-.28-2.71-.74v.07c0,2.87,2.06,5.26,4.78,5.81-.51,.14-1.04,.21-1.57,.21-.38,0-.75-.04-1.12-.11,.76,2.35,2.96,4.06,5.57,4.11-2.12,1.65-4.73,2.54-7.41,2.54-.48,0-.95-.03-1.42-.08,2.73,1.76,5.89,2.68,9.13,2.68,10.98,0,16.98-9.03,16.98-16.86,0-.26,0-.51-.02-.76,1.16-.84,2.17-1.88,2.98-3.07Z"/></g></g></svg>