<?xml version="1.0" encoding="UTF-8"?><svg xmlns="http://www.w3.org/2000/svg" viewBox="0 0 31 23.47"><defs><style>.d{fill:#585862;}</style></defs><g id="a"/><g id="b"><g id="c"><path class="d" d="M30.8,5.18C30.8,2.43,28.8,.22,26.32,.22c-3.35-.16-6.78-.22-10.27-.22h-1.09c-3.49,0-6.92,.06-10.27,.22C2.22,.22,.21,2.44,.21,5.19,.06,7.37,0,9.55,0,11.72c0,2.18,.06,4.35,.21,6.53,0,2.75,2,4.98,4.47,4.98,3.52,.17,7.14,.24,10.82,.23,3.68,.01,7.29-.07,10.82-.23,2.48,0,4.48-2.23,4.48-4.98,.15-2.18,.21-4.36,.21-6.54,.01-2.18-.05-4.35-.2-6.53ZM12.54,17.72V5.71l8.78,6-8.78,6.01Z"/></g></g></svg>